<svg xmlns="http://www.w3.org/2000/svg" xmlns:xlink="http://www.w3.org/1999/xlink"><symbol id="icon-close" viewBox="0 0 20 20"><g fill="none"><path d="M.293 18.291a1 1 0 101.414 1.414L10 11.413l8.292 8.292a1 1 0 101.414-1.414l-8.292-8.292 8.292-8.292A1 1 0 1018.291.293L9.999 8.585 1.707.293A1 1 0 10.293 1.707L8.585 10 .293 18.291z"/></g></symbol><symbol id="sprite"><symbol viewBox="0 0 27px 32px" id="icon-cruise-liner"><path d="m4.4 16.4 8.82-6.46a.6.6 0 0 1 .65 0l8.86 6.46V8.69a1.9 1.9 0 0 0-1.84-2H6.24a1.9 1.9 0 0 0-1.83 2v7.7ZM15.75 0h-4.37v5.35h4.37V0Z"/><path d="m24.3 30.16 2.7-9.13-3.8-2.72-.26-.13L14 11.8v18.8h-.48l-.83-.05V11.81L0 21.03l2.8 9.09 1.6 1.87H13.52c1.3.02 3.6 0 3.6 0h5.7l1.48-1.83Z"/></symbol><symbol viewBox="0 0 38px 32px" id="icon-ticks"><path d="M28.75 3.38 26.44 0 16.07 15.14l2.32 3.37L28.75 3.38ZM35.7 0 18.38 25.25l-6.82-9.95-2.31 3.38L18.38 32 38 3.38 35.7 0ZM0 18.68 9.13 32l2.32-3.38L2.3 15.3 0 18.68Z"/></symbol><symbol viewBox="0 0 44px 32px" id="icon-ship"><path d="m41.44 25.72-39.8-8.5c-.3-.07-.5.56-.35 1.06C3.84 26.33 9.86 32 16.87 32H40.6c.17 0 .3-.2.35-.5l.8-4.88c.07-.42-.08-.85-.31-.9ZM43.88 11.77c-.11-.34-.3-.57-.52-.63l-11-2.78c-.4-.1-.77.43-.82 1.2-.05.76.23 1.46.63 1.56l1.25.31c.18.05.31.34.31.7v2.14c0 .42-.19.74-.4.7l-2.94-.6c-.18-.04-.32-.34-.32-.7V7.6c0-.14.02-.27.06-.39l1.28-3.65c.15-.41.16-.95.05-1.4-.12-.44-.36-.73-.63-.76L15.43 0c-.24 0-.48.2-.63.58l-3.57 9.54c-.08.2-.2.31-.34.28L.81 8.36c-.2-.05-.41.08-.57.34C.1 8.97 0 9.34 0 9.74c0 1.34.1 2.65.26 3.93.04.28.17.48.32.52l41.43 8.85c.18.04.34-.16.4-.48l1.56-9.63c.06-.4.03-.82-.09-1.16Zm-22.72-7.7-.57 7.6c-.03.36-.2.63-.4.59l-6.8-1.35c-.28-.06-.42-.66-.26-1.1l2.52-6.69c.07-.19.19-.3.31-.29l4.86.44c.21.02.37.39.34.8Zm7.95 1-.45 1.29c-.04.11-.06.25-.06.39v6.48c0 .41-.19.74-.4.7l-5.83-1.2c-.2-.03-.35-.4-.32-.78l.6-7.88c.02-.35.19-.61.37-.6l5.8.53c.29.02.45.63.3 1.08Zm9.02 10.1c0 .41-.19.73-.4.69l-2.2-.48c-.2-.04-.33-.34-.33-.69v-2.01c0-.42.2-.75.42-.7l2.2.56c.18.05.31.35.31.7v1.93Zm4.05-.7-.27 1.67c-.05.32-.21.53-.39.5l-1.6-.33c-.18-.04-.32-.34-.32-.7V13.8c0-.42.2-.74.42-.69l1.86.47c.23.06.37.49.3.9Z"/></symbol><symbol viewBox="0 0 18px 22px" id="icon-anchor"><path d="M15.36 15.56 9 22l-6.36-6.44A9.15 9.15 0 0 1 .69 5.63 9.09 9.09 0 0 1 4 1.53a8.92 8.92 0 0 1 13.31 4.1 9.22 9.22 0 0 1-1.95 9.93ZM9 11.14a2.04 2.04 0 0 0 0-4.05 2.04 2.04 0 0 0-1.41 3.46c.37.37.88.59 1.41.59Z"/></symbol><symbol viewBox="0 0 18px 18px" id="icon-tel"><path d="M18 13.42v3.54a1 1 0 0 1-.93 1c-.44.02-.8.04-1.07.04A16 16 0 0 1 .05.93a1 1 0 0 1 1-.93h3.53a.5.5 0 0 1 .5.45A13.52 13.52 0 0 0 6.35 5c.1.2.03.44-.15.57L4.04 7.11a13.05 13.05 0 0 0 6.85 6.85l1.54-2.16a.46.46 0 0 1 .57-.15 13.9 13.9 0 0 0 4.55 1.27.5.5 0 0 1 .45.5Z"/></symbol><symbol viewBox="0 0 12px 20px" id="icon-classmates"><path d="M5.88 3.03c1.2 0 2.16.95 2.16 2.13S7.07 7.3 5.88 7.3c-1.2 0-2.17-.96-2.17-2.14 0-1.18.97-2.13 2.17-2.13Zm0 7.3a5.2 5.2 0 0 0 5.23-5.17A5.2 5.2 0 0 0 5.88 0 5.2 5.2 0 0 0 .63 5.16a5.2 5.2 0 0 0 5.24 5.16Zm2.11 4.2a9.95 9.95 0 0 0 3.04-1.24 1.5 1.5 0 0 0 .49-2.08 1.54 1.54 0 0 0-2.12-.48 6.73 6.73 0 0 1-7.05 0 1.54 1.54 0 0 0-2.12.48 1.5 1.5 0 0 0 .49 2.08c.94.59 1.97 1 3.04 1.24L.83 17.42a1.5 1.5 0 0 0 0 2.14 1.55 1.55 0 0 0 2.17 0l2.88-2.84 2.87 2.84c.6.59 1.57.59 2.17 0 .6-.6.6-1.55 0-2.14L8 14.53Z"/></symbol><symbol viewBox="0 0 20px 20px" id="icon-dzen"><path d="M19.56 9.56a.44.44 0 0 0 .44-.48A10.03 10.03 0 0 0 10.92 0a.44.44 0 0 0-.48.44c.08 6.4.93 9.03 9.12 9.12Zm0 .88c-8.2.1-9.04 2.71-9.11 9.12a.44.44 0 0 0 .47.44A10.03 10.03 0 0 0 20 10.92a.44.44 0 0 0-.44-.48ZM9.05 0C4.25.46.44 4.27 0 9.08a.44.44 0 0 0 .44.48c8.17-.1 9.01-2.71 9.09-9.12A.44.44 0 0 0 9.05 0ZM.45 10.44c-.14-.01-.25.05-.33.14a.44.44 0 0 0-.12.34A10.03 10.03 0 0 0 9.1 20a.44.44 0 0 0 .43-.44c-.08-6.4-.92-9.02-9.09-9.12Z"/></symbol><symbol viewBox="0 0 20px 20px" id="icon-reddit"><path d="M11.95 0c-.65 0-1.25.33-1.63.8-.39.46-.6 1.04-.76 1.64-.24.97-.32 2.04-.34 3.01-1.8.12-3.43.66-4.79 1.48a2.88 2.88 0 0 0-1.85-.71c-.72 0-1.4.32-1.92.96a3.49 3.49 0 0 0 .27 4.4 6 6 0 0 0-.12 1.13C.8 16.74 4.92 20 10 20c5.08 0 9.2-3.26 9.2-7.29a6 6 0 0 0-.13-1.12 3.49 3.49 0 0 0 .27-4.41 2.44 2.44 0 0 0-1.92-.96c-.64 0-1.3.25-1.85.71a10.53 10.53 0 0 0-4.77-1.48c.03-.9.1-1.82.27-2.52.11-.44.25-.76.39-.93.14-.17.25-.25.49-.25.52 0 .58.17.9.58.15.2.34.46.63.71.29.25.72.47 1.19.47V1.75c-.13 0-.16 0-.24-.08-.1-.08-.21-.26-.4-.5C13.69.72 12.99 0 11.96 0ZM17 .16c-1.2 0-2.19 1.1-2.19 2.47 0 1.36.98 2.47 2.2 2.47 1.2 0 2.18-1.1 2.18-2.47 0-1.36-.98-2.47-2.19-2.47Zm0 .88c.78 0 1.41.71 1.41 1.59 0 .88-.63 1.59-1.4 1.59-.79 0-1.42-.71-1.42-1.59 0-.88.64-1.59 1.41-1.59Zm-7 5.78c4.3 0 7.95 2.7 7.95 5.9 0 3.18-3.64 5.88-7.95 5.88-4.3 0-7.95-2.7-7.95-5.89 0-3.19 3.64-5.89 7.95-5.89Zm-7.4.8c.22 0 .45.05.66.16a7.18 7.18 0 0 0-1.82 2.3c-.3-.68-.21-1.52.15-1.97.26-.33.62-.5 1.02-.5Zm14.8 0c.39 0 .75.16 1.01.49.36.45.44 1.3.15 1.97a7.18 7.18 0 0 0-1.82-2.3c.21-.1.44-.16.65-.16ZM6.88 9.8c-.78 0-1.41.71-1.41 1.59 0 .87.63 1.59 1.4 1.59.79 0 1.42-.72 1.42-1.6 0-.87-.63-1.58-1.41-1.58Zm6.22 0c-.78 0-1.4.71-1.4 1.59 0 .87.62 1.59 1.4 1.59.78 0 1.41-.72 1.41-1.6 0-.87-.63-1.58-1.4-1.58Zm-6.98 5.4c.5 1.15 2.03 2.27 3.87 2.27 1.84 0 3.4-1.12 3.9-2.27-.9.65-2.33 1.1-3.9 1.1a6.73 6.73 0 0 1-3.87-1.1Z"/></symbol></symbol></svg>